<?xml version="1.0" standalone="no"?>
<!DOCTYPE svg PUBLIC "-//W3C//DTD SVG 20010904//EN"
 "http://www.w3.org/TR/2001/REC-SVG-20010904/DTD/svg10.dtd">
<svg version="1.0" xmlns="http://www.w3.org/2000/svg"
 width="512.000000pt" height="512.000000pt" viewBox="0 0 512.000000 512.000000"
 preserveAspectRatio="xMidYMid meet">
<metadata>
Created by potrace 1.14, written by Peter Selinger 2001-2017
</metadata>
<g transform="translate(0.000000,512.000000) scale(0.100000,-0.100000)"
fill="#000000" stroke="none">
<path d="M2493 4253 c4 -65 11 -140 16 -168 5 -27 12 -70 16 -94 19 -131 114
-397 192 -541 l35 -64 -54 -51 c-62 -57 -173 -154 -197 -172 -12 -9 -125 -12
-456 -13 -242 0 -480 -5 -530 -10 -137 -16 -306 -60 -420 -110 -22 -10 -74
-20 -115 -24 -73 -6 -95 -9 -152 -22 -15 -3 -31 -6 -35 -6 -22 -2 -120 -41
-183 -72 -244 -123 -430 -336 -508 -581 -39 -122 -47 -179 -47 -325 1 -171 11
-239 61 -388 91 -275 270 -504 519 -664 138 -89 285 -146 477 -185 18 -4 724
-8 1569 -10 l1537 -3 31 31 c22 22 31 40 31 64 0 52 -7 62 -87 121 l-75 56 34
36 c132 141 218 313 253 507 14 77 15 311 1 333 -3 5 -8 28 -11 50 -2 23 -9
59 -14 81 l-9 40 77 48 c283 175 446 363 545 626 58 156 95 391 65 419 -8 7
-67 60 -132 117 -64 56 -117 104 -117 105 0 1 22 45 49 97 120 232 193 506
208 773 5 100 4 119 -8 114 -8 -3 -41 -13 -74 -23 -133 -38 -295 -126 -430
-234 -108 -86 -245 -242 -294 -335 -10 -18 -20 -25 -30 -20 -9 3 -46 15 -83
25 -233 66 -529 63 -753 -6 -43 -13 -80 -23 -80 -22 -1 1 -22 34 -48 72 -164
242 -399 421 -675 514 -51 17 -96 31 -99 31 -3 0 -3 -53 0 -117z"/>
</g>
</svg>
